SPORT: The Rugby Club
Date: Friday 1st March 2013
Time: 04:00 to 05:00

An expert panel of guests weigh in on all the talking points from the world of rugby union. Plus, interviews with some of the biggest names in the game.

General
Complete name: 2013.02.28.Rugby.Club.pdtv.x264.mp4
Format : MPEG-4
Format profile : Base Media
Codec ID : isom
File size: 362 MiB
Duration : 47mn 11s
Overall bit rate mode: Variable
Overall bit rate : 1 072 Kbps

Video
ID : 1
Format : AVC
Format/Info: Advanced Video Codec
Format profile : High@L3.1
Format settings, CABAC : Yes
Format settings, ReFrames: 8 frames
Codec ID : avc1
Codec ID/Info: Advanced Video Coding
Duration : 47mn 11s
Bit rate : 940 Kbps
Maximum bit rate : 5 123 Kbps
Width: 720 pixels
Height : 416 pixels
Display aspect ratio : 1.731
Frame rate mode: Constant
Frame rate : 25.000 fps
Color space: YUV
Chroma subsampling : 4:2:0
Bit depth: 8 bits
Scan type: Progressive
Bits/(Pixel*Frame) : 0.126
Stream size: 317 MiB (88%)
Writing library: x264 core 129 r2245 bc13772

Audio
ID : 2
Format : AAC
Format/Info: Advanced Audio Codec
Format profile : LC
Codec ID : 40
Duration : 47mn 11s
Bit rate mode: Variable
Bit rate : 128 Kbps
Maximum bit rate : 145 Kbps
Channel(s) : 2 channels
Channel positions: Front: L R
Sampling rate: 48.0 KHz
Compression mode : Lossy
Delay relative to video: 80ms
Stream size: 43.2 MiB (12%)
Language : English
